<svg id="Layer_1" viewBox="0 0 30 30" xmlns="http://www.w3.org/2000/svg" data-name="Layer 1"><path d="m22.591 8.18h-7.514a.75.75 0 1 0 0 1.5h7.514a.75.75 0 0 0 0-1.5z"/><path d="m10.377 7.343-1.76 1.8-.671-.683a.75.75 0 1 0 -1.074 1.047l.827.848a1.279 1.279 0 0 0 1.836 0l1.916-1.965a.75.75 0 1 0 -1.074-1.047z"/><path d="m22.591 14.25h-7.514a.75.75 0 1 0 0 1.5h7.514a.75.75 0 0 0 0-1.5z"/><path d="m10.377 13.413-1.76 1.8-.671-.688a.75.75 0 0 0 -1.074 1.047l.827.849a1.281 1.281 0 0 0 1.836 0l1.916-1.965a.75.75 0 1 0 -1.074-1.047z"/><path d="m22.591 20.32h-7.514a.75.75 0 1 0 0 1.5h7.514a.75.75 0 0 0 0-1.5z"/><path d="m10.377 19.483-1.76 1.806-.671-.689a.75.75 0 0 0 -1.074 1.046l.827.85a1.279 1.279 0 0 0 1.836 0l1.916-1.966a.75.75 0 0 0 -1.074-1.047z"/><path d="m28.163 25v-20a4.756 4.756 0 0 0 -4.75-4.75h-16.826a4.756 4.756 0 0 0 -4.75 4.75v20a4.756 4.756 0 0 0 4.75 4.75h16.826a4.756 4.756 0 0 0 4.75-4.75zm-24.826 0v-20a3.254 3.254 0 0 1 3.25-3.25h16.826a3.254 3.254 0 0 1 3.25 3.25v20a3.254 3.254 0 0 1 -3.25 3.25h-16.826a3.254 3.254 0 0 1 -3.25-3.25z"/></svg>